<svg width="154" height="54" viewBox="0 0 154 54" fill="none" xmlns="http://www.w3.org/2000/svg">
<g id="Logo" filter="url(#filter0_d_91_3741)">
<path id="l" d="M143.376 48.5247C143.131 48.4215 142.783 48.3184 142.603 48.2797C142.422 48.241 142.164 48.1249 142.022 48.0089C141.88 47.9057 141.39 47.5704 140.939 47.2609C140.475 46.9643 140.01 46.5645 139.907 46.371C139.791 46.1647 139.662 46.0099 139.611 46.0099C139.301 46.0099 137.702 42.8375 137.702 42.2313C137.702 42.0637 137.625 41.8574 137.547 41.78C137.212 41.4576 137.16 38.9557 137.096 23.5061C137.057 11.3062 137.083 7.61793 137.199 7.06339C137.367 6.3541 137.728 5.70929 137.883 5.86405C137.921 5.90274 137.96 5.85115 137.96 5.74798C137.96 5.46426 139.159 5 139.894 5C140.913 5 141.648 5.39978 142.241 6.27672C142.461 6.58623 142.474 7.60503 142.474 22.4099C142.486 37.1116 142.499 38.298 142.719 39.5618C143.002 41.1997 143.299 41.896 144.008 42.6311C144.563 43.1728 144.563 43.1728 145.827 43.1728C148.212 43.1728 149.309 44.0239 149.309 45.881C149.309 46.3194 149.231 46.8353 149.115 47.0287C148.87 47.5188 147.916 48.3313 147.606 48.3313C147.464 48.3313 147.232 48.3957 147.078 48.486C146.678 48.7181 143.957 48.731 143.376 48.5247Z" fill="black" stroke="black" stroke-width="0.5"/>
<path id="t" d="M123.001 48.5237C122.82 48.4205 122.485 48.3431 122.24 48.3302C121.827 48.3302 120.035 47.5049 119.003 46.8472C117.404 45.8155 115.972 44.1519 115.044 42.2561C114.347 40.8504 114.309 40.6957 114.102 38.916C114.025 38.3099 113.909 37.6522 113.844 37.4458C113.651 36.8784 113.664 10.9699 113.87 10.4025C114.218 9.3708 114.876 8.76468 116.114 8.3649C116.54 8.22304 116.746 8.22304 117.12 8.352C118.371 8.76468 119.054 9.3837 119.325 10.3509C119.39 10.5702 119.467 12.6206 119.506 14.9291C119.583 19.1203 119.583 19.1203 122.562 19.1848C125.541 19.2493 125.541 19.2493 126.07 19.7651C126.367 20.036 126.612 20.3326 126.612 20.4228C126.612 20.5002 126.702 20.6421 126.805 20.7324C127.011 20.9 127.089 22.2799 126.895 22.2799C126.831 22.2799 126.676 22.4991 126.56 22.77C126.418 23.0795 126.122 23.389 125.735 23.634C125.129 24.0209 125.129 24.0209 122.356 24.0854C119.583 24.1499 119.583 24.1499 119.545 31.6168C119.532 37.1492 119.557 39.1224 119.661 39.2642C119.751 39.3674 119.944 39.7285 120.112 40.0767C120.267 40.4249 120.718 41.0181 121.092 41.3921C121.724 42.0111 122.459 42.6559 122.524 42.643C122.653 42.6172 123.375 42.8623 123.581 42.9912C123.723 43.1073 124.187 43.1718 124.69 43.1718C126.857 43.1718 128.378 44.6548 128.095 46.4861C128.004 47.1309 127.398 47.8918 126.586 48.4076C126.147 48.6784 125.954 48.7171 124.716 48.7171C123.749 48.7042 123.22 48.6526 123.001 48.5237Z" fill="black" stroke="black" stroke-width="0.5"/>
<path id="n" d="M73.092 48.7825C73.0017 48.6793 72.8341 48.589 72.718 48.589C72.3956 48.589 71.9571 48.2279 71.6218 47.7121C71.0415 46.7578 71.0157 46.3193 71.0802 38.401C71.1447 30.2893 71.2091 28.7676 71.4929 28.4581C71.596 28.342 71.6476 28.2259 71.6089 28.1872C71.4413 28.0325 72.6277 24.989 72.847 24.989C72.8986 24.989 72.963 24.86 73.0146 24.6924C73.1178 24.2539 74.8072 22.0615 75.6454 21.2749C76.4321 20.5269 78.5471 19.0567 78.8179 19.0567C78.9082 19.0567 79.1274 18.9535 79.2951 18.8117C79.4627 18.6827 79.8367 18.5022 80.1204 18.399C80.4041 18.3087 80.7523 18.154 80.8942 18.0637C81.0361 17.9734 81.3585 17.8961 81.6164 17.8961C81.8743 17.8961 82.158 17.8187 82.2354 17.7155C82.3386 17.5866 82.7642 17.5092 83.5121 17.4576C84.1312 17.4189 84.9307 17.3544 85.3047 17.3157C85.7948 17.2513 86.0785 17.2899 86.4138 17.4447C86.762 17.6123 87.0457 17.6381 87.5744 17.5737C88.0516 17.5092 88.374 17.535 88.5803 17.651C88.748 17.7413 89.0962 17.8574 89.3412 17.909C90.4245 18.1411 93.1069 19.392 93.4938 19.8305C93.6099 19.9724 93.7646 20.0884 93.842 20.0884C93.9194 20.0884 94.6158 20.7074 95.3895 21.4812C96.4728 22.5387 97.0145 23.1835 97.6593 24.2152C98.1235 24.9632 98.4975 25.6467 98.4975 25.737C98.4975 25.8272 98.5491 25.9949 98.6265 26.1238C99.065 26.9363 99.2068 27.4779 99.4003 29.1802C99.4647 29.7477 99.5808 30.4183 99.6582 30.6633C99.7356 30.947 99.7871 33.926 99.7871 38.9556C99.7871 47.8926 99.8645 47.2607 98.6136 48.3827C97.9688 48.963 97.9301 48.9759 97.0918 48.9759C96.6147 48.9759 96.1633 48.9114 96.0859 48.8341C96.0215 48.7696 95.7635 48.6019 95.5314 48.4859C95.2477 48.344 94.964 48.0216 94.7318 47.5702C94.3578 46.8738 94.3578 46.8738 94.3707 38.6074C94.3836 31.4371 94.3578 30.3022 94.1902 30.083C94.0741 29.9411 93.9839 29.6316 93.9839 29.3995C93.9839 28.9352 93.5196 27.8906 92.8748 26.8589C92.3976 26.1109 90.9275 24.6537 90.1795 24.2152C89.8958 24.0476 89.6378 23.867 89.5991 23.8283C89.4831 23.6736 88.0129 23.1577 87.2778 23.0159C85.9366 22.7579 82.8931 22.9127 82.532 23.2609C82.4417 23.364 82.2612 23.4414 82.1451 23.4414C82.0162 23.4414 81.4745 23.6994 80.9458 24.0089C79.9528 24.6021 78.805 25.7112 78.1473 26.73C77.9668 27.0137 77.7475 27.3232 77.6444 27.4135C77.4896 27.5682 77.4509 27.6843 77.4896 27.9035C77.4896 27.9551 77.438 28.0325 77.3606 28.0712C77.2962 28.1228 77.2059 28.3033 77.1672 28.4967C77.1414 28.6773 77.0511 28.9481 76.9738 29.09C76.8964 29.2447 76.819 30.9986 76.7674 33.5134C76.7287 35.8089 76.6642 38.8008 76.6256 40.142C76.5869 41.4961 76.5224 43.6498 76.4966 44.9523C76.4579 47.2994 76.4579 47.2994 76.0581 47.8024C75.2715 48.7696 73.5563 49.337 73.092 48.7825Z" fill="black" stroke="black" stroke-width="0.5"/>
<path id="e" d="M43.5593 48.8467C43.3788 48.7822 42.979 48.679 42.6566 48.6016C41.3025 48.2663 40.7222 48.06 39.7163 47.5699C39.1359 47.2733 38.6201 47.0412 38.5943 47.0412C38.5556 47.0412 38.014 46.693 37.395 46.2674C35.9119 45.2615 34.4288 43.6882 33.2166 41.8182C32.4944 40.7221 31.5659 38.7618 31.5659 38.3621C31.5659 38.1944 31.4756 37.9494 31.3724 37.8075C31.2693 37.6786 31.179 37.3948 31.179 37.2014C31.179 36.9951 31.1145 36.7113 31.0371 36.5695C30.8308 36.1955 30.8437 31.0241 31.05 30.1214C31.1274 29.7474 31.2822 29.2702 31.3853 29.0768C31.4885 28.8705 31.5659 28.6125 31.5659 28.4965C31.5659 28.1354 31.9141 27.2584 32.0688 27.2068C32.1462 27.1811 32.2107 27.065 32.2107 26.9618C32.2107 26.6523 33.0747 25.1821 33.8485 24.1633C34.6223 23.1445 36.8017 20.9909 37.0468 20.9909C37.137 20.9909 37.2402 20.9135 37.2789 20.8103C37.3176 20.72 37.6013 20.5137 37.9108 20.359C38.2203 20.2042 38.6975 19.9334 38.9812 19.7657C39.7292 19.3144 40.5932 18.9275 40.864 18.9275C40.993 18.9275 41.1478 18.8501 41.1993 18.7469C41.3025 18.5793 41.6507 18.489 42.8501 18.3343C43.1338 18.2956 43.5465 18.1795 43.7786 18.0763C44.2686 17.8571 48.2923 17.8313 48.5502 18.0505C48.6405 18.115 49.0531 18.2311 49.4529 18.2827C50.433 18.4245 50.9102 18.5277 51.2326 18.6696C51.3744 18.734 51.8645 18.9404 52.3159 19.1209C53.3089 19.5078 54.9725 20.5137 55.4368 20.9909C55.6173 21.1843 55.8752 21.3778 56.0171 21.4293C56.2879 21.5067 58.1965 23.3896 58.4416 23.8022C58.5189 23.9441 58.8156 24.3955 59.0993 24.8081C59.7183 25.7496 60.0278 26.2525 60.2084 26.6652C60.2857 26.8457 60.4921 27.2842 60.6597 27.6324C60.8274 27.9935 60.9692 28.3804 60.9692 28.5094C60.9692 28.6383 61.0595 28.922 61.1756 29.1284C61.2787 29.3476 61.3432 29.6055 61.3045 29.7216C61.2658 29.8248 61.3174 30.0698 61.4206 30.2761C61.5496 30.5341 61.614 31.1531 61.6398 32.4556C61.6656 34.2611 61.6656 34.2611 61.24 34.8801C61.0079 35.2154 60.5952 35.641 60.3373 35.8215C59.873 36.1439 59.873 36.1439 52.5996 36.0923C45.4422 36.0536 45.3261 36.0407 44.9134 35.7699C44.6813 35.6281 44.346 35.2541 44.1526 34.9446C43.8689 34.4674 43.8173 34.2482 43.8173 33.3454C43.8173 32.3137 43.8173 32.3008 44.3073 31.8366C45.4164 30.7791 44.8103 30.8694 50.6523 30.8565C53.5281 30.8436 55.9526 30.8307 56.0429 30.8178C56.3008 30.7791 56.2234 30.5341 55.5528 29.18C54.7919 27.6582 54.7146 27.5292 54.1729 26.9231C53.9408 26.6781 53.7474 26.4331 53.7474 26.3944C53.7474 26.3428 53.3605 25.9946 52.8833 25.6077C51.929 24.8339 50.7941 24.1633 50.2267 24.0344C50.0332 23.9828 49.8914 23.9054 49.9301 23.8538C49.9559 23.8022 49.8011 23.7378 49.5819 23.7249C49.3497 23.712 49.0273 23.6475 48.8468 23.583C48.4986 23.454 46.6415 23.2735 45.8807 23.2864C44.9006 23.2993 43.3401 23.4669 42.979 23.5959C41.5089 24.1246 39.755 25.2595 38.9425 26.2267C38.13 27.1939 38.0269 27.3229 38.0011 27.4132C37.9882 27.4648 37.8205 27.7098 37.6013 27.9548C36.9952 28.677 36.9694 28.7286 37.0597 28.7286C37.0983 28.7286 37.0468 28.8705 36.9307 29.051C36.8146 29.2186 36.7244 29.4766 36.7244 29.6184C36.7244 29.7603 36.6599 29.8893 36.5825 29.915C36.2988 30.0053 36.144 31.282 36.1569 33.5002C36.1569 34.7382 36.2085 35.9376 36.2601 36.1439C36.6728 37.7172 37.5626 39.2003 38.8909 40.5286C40.4772 42.1149 41.4186 42.7339 43.0435 43.2497C43.8818 43.5076 48.6276 43.5076 49.4013 43.2497C50.4459 42.8886 51.1681 42.5404 51.8387 42.0375C53.1799 41.0703 53.67 40.851 54.4953 40.851C55.153 40.851 55.3336 40.9026 55.7592 41.2379C56.3911 41.7409 57.1004 42.9531 57.1004 43.5592C57.1004 43.8043 56.9843 44.1911 56.8424 44.3975C56.6877 44.6167 56.4813 44.9778 56.3782 45.2099C56.2621 45.4292 56.1203 45.6226 56.0687 45.6226C56.0171 45.6226 55.5141 45.9321 54.9596 46.3061C53.5539 47.2475 51.31 48.3308 50.7683 48.3308C50.5233 48.3308 50.2009 48.4211 50.0461 48.5243C49.8785 48.6403 49.5303 48.7177 49.1692 48.6919C48.8468 48.6919 48.5115 48.7435 48.4341 48.8209C48.2536 49.0014 44.0881 49.0143 43.5593 48.8467Z" fill="black" stroke="black" stroke-width="0.5"/>
<path id="r" d="M6.17355 48.3948C5.92853 48.2272 5.56743 47.8403 5.37399 47.5308C5 46.9762 5 46.9762 5 39.4964C5 34.7506 5.05158 31.9522 5.12896 31.8748C5.19344 31.8103 5.30951 31.3976 5.37399 30.9849C5.63191 29.3987 5.76088 28.8571 6.0059 28.3154C6.13487 28.0059 6.28962 27.6061 6.32831 27.4127C6.37989 27.2064 6.48306 27.0516 6.56044 27.0516C6.63782 27.0516 6.66361 27 6.62492 26.9355C6.58623 26.8711 6.63782 26.755 6.74099 26.6647C6.84416 26.5744 6.93443 26.4068 6.93443 26.2907C6.93443 26.1231 7.43738 25.259 7.81137 24.7948C7.86296 24.7303 8.04351 24.4595 8.22405 24.2144C8.84307 23.3117 9.99083 22.1124 11.0483 21.2354C11.6415 20.7454 12.1703 20.3456 12.2348 20.3456C12.2993 20.3456 12.6861 20.1134 13.0988 19.8426C14.2982 19.0302 16.7871 17.8953 17.3933 17.8953C17.7286 17.8953 17.9349 17.8308 17.9736 17.7019C18.0381 17.56 18.2444 17.5084 18.7345 17.5084C19.1213 17.5084 19.4695 17.4568 19.5082 17.3795C19.5598 17.3021 20.2175 17.2505 21.0687 17.2505C22.5517 17.2505 22.5646 17.2505 23.2352 17.7019C24.0606 18.2435 24.3314 18.7851 24.3572 19.8684C24.383 20.8356 24.1896 21.2612 23.4545 21.9318C23.0418 22.3058 22.8097 22.409 22.4357 22.409C22.1777 22.409 21.7264 22.4735 21.4427 22.5637C21.1589 22.6411 20.411 22.7443 19.7662 22.7959C18.4378 22.9119 17.9091 23.0151 17.6383 23.2472C17.5351 23.3246 17.2385 23.4794 16.9935 23.5696C16.1939 23.8791 14.7624 24.8721 13.6791 25.8652C13.0859 26.3939 12.6346 26.8711 12.6732 26.9226C12.699 26.9742 12.6088 27.129 12.4669 27.2579C12.3122 27.3998 12.08 27.7222 11.9511 27.993C11.8092 28.251 11.6415 28.4702 11.5642 28.4702C11.4868 28.4702 11.461 28.5218 11.5126 28.5863C11.5513 28.6507 11.5255 28.741 11.461 28.7797C11.3965 28.8184 11.3062 29.0505 11.2676 29.2955C11.216 29.5406 11.1257 29.7598 11.0612 29.7856C10.9452 29.8243 10.6099 30.9076 10.3003 32.2488C10.2101 32.6486 10.1585 35.2149 10.1585 39.8188C10.1585 46.7699 10.1585 46.7699 9.62974 47.5566C9.33313 47.9821 9.02362 48.3303 8.93334 48.3303C8.84307 48.3303 8.70121 48.4206 8.61094 48.5238C8.49487 48.6656 8.19826 48.7172 7.52766 48.7172C6.77968 48.7043 6.53465 48.6528 6.17355 48.3948Z" fill="black" stroke="black" stroke-width="0.5"/>
</g>
<defs>
<filter id="filter0_d_91_3741" x="0.75" y="0.75" width="152.809" height="52.5005" filterUnits="userSpaceOnUse" color-interpolation-filters="sRGB">
<feFlood flood-opacity="0" result="BackgroundImageFix"/>
<feColorMatrix in="SourceAlpha" type="matrix" values="0 0 0 0 0 0 0 0 0 0 0 0 0 0 0 0 0 0 127 0" result="hardAlpha"/>
<feOffset/>
<feGaussianBlur stdDeviation="2"/>
<feComposite in2="hardAlpha" operator="out"/>
<feColorMatrix type="matrix" values="0 0 0 0 0 0 0 0 0 0 0 0 0 0 0 0 0 0 0.25 0"/>
<feBlend mode="normal" in2="BackgroundImageFix" result="effect1_dropShadow_91_3741"/>
<feBlend mode="normal" in="SourceGraphic" in2="effect1_dropShadow_91_3741" result="shape"/>
</filter>
</defs>
</svg>
